<?xml version="1.0" encoding="UTF-8"?>
<svg id="Layer_1" xmlns="http://www.w3.org/2000/svg" version="1.1" viewBox="0 0 64 64">
  <!-- Generator: Adobe Illustrator 29.7.1, SVG Export Plug-In . SVG Version: 2.1.1 Build 8)  -->
  <defs>
    <style>
      .st0 {
        fill: currentColor;
      }
    </style>
  </defs>
  <path class="st0" d="M47.3,23.3h-7.3v-6.3c0-4.6-3.7-8.3-8.3-8.3h-14.7c-4.6,0-8.3,3.7-8.3,8.3v14.7c0,4.6,3.7,8.3,8.3,8.3h6.3v7.3c0,5.1,4.2,9.3,9.3,9.3h14.7c5.1,0,9.3-4.2,9.3-9.3v-14.7c0-5.1-4.2-9.3-9.3-9.3ZM54.6,47.3c0,4-3.3,7.3-7.3,7.3h-14.7c-4,0-7.3-3.3-7.3-7.3v-14.7c0-4,3.3-7.3,7.3-7.3h14.7c4,0,7.3,3.3,7.3,7.3v14.7Z"/>
</svg>
