<?xml version="1.0" encoding="UTF-8"?>
<svg id="Layer_1" xmlns="http://www.w3.org/2000/svg" version="1.1" xmlns:xlink="http://www.w3.org/1999/xlink" viewBox="0 0 1920 1920">
  <!-- Generator: Adobe Illustrator 29.7.1, SVG Export Plug-In . SVG Version: 2.1.1 Build 8)  -->
  <defs>
    <style>
      .st0, .st1 {
        stroke: #f44a4a;
        stroke-miterlimit: 10;
        stroke-width: 6px;
      }

      .st0, .st2 {
        fill: #f44a4a;
      }

      .st3 {
        isolation: isolate;
      }

      .st1 {
        fill: none;
      }

      .st4 {
        fill: #ddd;
      }

      .st5 {
        fill: url(#linear-gradient);
      }
    </style>
    <linearGradient id="linear-gradient" x1="146.2" y1="743.5" x2="1813.3" y2="743.5" gradientUnits="userSpaceOnUse">
      <stop offset="0" stop-color="#1a1a1a"/>
      <stop offset="1" stop-color="#000"/>
    </linearGradient>
  </defs>
  <g class="st3">
    <g class="st3">
      <path class="st4" d="M235.8,1293.8c0,10.5-3.9,19-11.6,25.7s-17.4,10-29.1,10h-56.2v-120.5h43.5c11.7,0,21.4,3.3,29.1,9.9,7.7,6.6,11.6,15.2,11.6,25.7s-2.4,14.8-7.3,20.3c13.4,5.4,20.1,15,20.1,28.8ZM169,1235.6v21.2h11.3c3.8,0,6.7-1,8.9-2.9s3.2-4.5,3.2-7.7-1.1-5.7-3.2-7.7c-2.1-1.9-5.1-2.9-8.9-2.9h-11.3ZM205.1,1292.6c0-7.1-4-10.6-12-10.6h-24.1v21.2h24.1c8,0,12-3.5,12-10.6Z"/>
      <path class="st4" d="M311.6,1238.3v27.8h-7.5c-7.2,0-12.6,1.7-16.2,5.2s-5.5,9-5.5,16.7v41.6h-31.4v-91.3h28.7v9.7c5.8-7.4,13.5-11.1,23-11.1s6.3.5,8.9,1.5Z"/>
      <path class="st4" d="M403.4,1249.9c9.7,9.2,14.6,20.5,14.6,34s-4.9,24.9-14.6,34c-9.7,9.2-21.5,13.8-35.2,13.8s-25.6-4.6-35.2-13.8c-9.6-9.2-14.4-20.5-14.4-34s4.8-24.9,14.4-34c9.6-9.2,21.4-13.8,35.2-13.8s25.5,4.6,35.2,13.8ZM355.6,1270.3c-3.3,3.5-4.9,8.1-4.9,13.7s1.6,10.3,4.9,13.8,7.5,5.2,12.8,5.2,9.2-1.8,12.5-5.3c3.3-3.5,5-8.1,5-13.7s-1.7-10-5-13.6-7.5-5.4-12.5-5.4-9.5,1.8-12.8,5.3Z"/>
      <path class="st4" d="M504.4,1246.6c7.4,6.9,11.1,17,11.1,30.1v52.9h-28.7v-7.5c-6.8,6.5-15.6,9.7-26.3,9.7s-17.6-2.7-23.1-8.1-8.3-12.1-8.3-20.2,3.2-15.2,9.6-20c6.4-4.8,15.1-7.2,26.2-7.2h19.2v-1.5c0-3.5-1.1-6.4-3.4-8.5-2.3-2.1-5.8-3.2-10.5-3.2s-7.9.9-11.2,2.6-7.2,4.6-11.6,8.5l-14.6-19.9c11.9-12.2,25.7-18.3,41.3-18.3s22.9,3.5,30.3,10.4ZM480.2,1306c2.6-2.4,3.9-5.6,3.9-9.8v-.7h-14.8c-5.6,0-8.4,2.3-8.4,6.9s3.1,7.1,9.3,7.1,7.3-1.2,10-3.6Z"/>
      <path class="st4" d="M629.2,1192.7v136.9h-28.7v-9.5c-5.7,7.8-14.4,11.7-26.1,11.7s-23.3-4.4-31.5-13.3-12.3-20.3-12.3-34.3,4.1-25.5,12.3-34.5,18.7-13.5,31.5-13.5,17.4,2.8,23.4,8.4v-51.9h31.4ZM593.2,1298.4c3.5-3.3,5.2-8,5.2-14.2s-1.7-11-5.2-14.4c-3.5-3.4-7.6-5.1-12.5-5.1s-9.1,1.7-12.6,5.1c-3.5,3.4-5.3,8.2-5.3,14.2s1.7,10.8,5.2,14.2c3.5,3.4,7.7,5.1,12.7,5.1s9-1.6,12.5-4.9Z"/>
      <path class="st4" d="M719.6,1242.7c7.1,4.4,12.5,10.3,16.2,17.9l-21.7,16.6c-5.2-8.2-11.5-12.2-18.8-12.2s-9.9,1.8-13.1,5.3c-3.3,3.5-4.9,8.1-4.9,13.7s1.6,10.2,4.9,13.7c3.3,3.5,7.7,5.3,13.1,5.3s13.6-4,18.8-12l21.7,16.4c-3.8,7.5-9.2,13.5-16.2,17.9s-15.3,6.6-24.6,6.6c-14,0-25.8-4.6-35.4-13.8-9.6-9.2-14.4-20.5-14.4-34s4.8-24.9,14.4-34c9.6-9.2,21.4-13.8,35.4-13.8s17.6,2.2,24.6,6.6Z"/>
      <path class="st4" d="M821.1,1246.6c7.4,6.9,11.1,17,11.1,30.1v52.9h-28.7v-7.5c-6.8,6.5-15.6,9.7-26.3,9.7s-17.6-2.7-23.1-8.1-8.3-12.1-8.3-20.2,3.2-15.2,9.6-20c6.4-4.8,15.1-7.2,26.2-7.2h19.2v-1.5c0-3.5-1.1-6.4-3.4-8.5-2.3-2.1-5.8-3.2-10.5-3.2s-7.9.9-11.2,2.6-7.2,4.6-11.6,8.5l-14.6-19.9c11.9-12.2,25.7-18.3,41.3-18.3s22.9,3.5,30.3,10.4ZM796.9,1306c2.6-2.4,3.9-5.6,3.9-9.8v-.7h-14.8c-5.6,0-8.4,2.3-8.4,6.9s3.1,7.1,9.3,7.1,7.3-1.2,10-3.6Z"/>
      <path class="st4" d="M919.3,1249.5l-14.8,19.2c-6.2-5.2-12.7-7.9-19.4-7.9s-6.4,1.2-6.4,3.5.2,1.4.7,2c.5.6,1.1,1.1,1.9,1.5.8.4,2,.9,3.6,1.5l9.1,3.7c9.1,3.7,15.9,7.5,20.2,11.7,4.3,4.1,6.5,9.8,6.5,17s-3.5,16.8-10.6,22.2-16.1,8.1-27.2,8.1c-17.3,0-30.4-5.8-39.3-17.5l14.6-18.6c7.8,7.5,16.2,11.3,25.2,11.3s8-1.3,8-4-1.8-3.1-5.3-4.6l-10.2-4.2c-9-3.7-15.7-7.7-20-12-4.3-4.4-6.5-10.2-6.5-17.3s3.2-16.1,9.7-21.2c6.5-5.1,15-7.7,25.7-7.7s25.7,4.5,34.3,13.5Z"/>
      <path class="st4" d="M999.3,1303.3v26.3c-6.1,1.5-12.2,2.2-18.4,2.2-12.9,0-22.8-3.1-29.8-9.3-6.9-6.2-10.4-15.5-10.4-27.8v-30.1h-13.9v-26.3h13.9v-21.9h31.4v21.9h24.5v26.3h-24.5v27c0,4.4,1.2,7.5,3.6,9.3,2.4,1.8,6.4,2.7,12.1,2.7s4.9-.1,11.5-.4Z"/>
      <path class="st4" d="M1179.5,1233.8l-21.9,18.6c-7.9-11.1-18.1-16.6-30.5-16.6s-18.1,3.1-24,9.2c-5.9,6.1-8.9,14.3-8.9,24.4s3.1,18.7,9.3,25c6.2,6.3,14.7,9.5,25.4,9.5s20.3-3.6,26.5-10.8v-5.7h-28.1v-27h59.5v38c-5.6,10-13.6,18-24,24.2s-22.1,9.2-35.1,9.2c-18.5,0-34-6-46.6-17.9s-18.9-26.8-18.9-44.5,6.3-32.5,18.9-44.5c12.6-12,28.1-18,46.6-18s39.7,8.9,51.8,26.8Z"/>
      <path class="st4" d="M1263.5,1238.3v27.8h-7.5c-7.2,0-12.6,1.7-16.2,5.2s-5.5,9-5.5,16.7v41.6h-31.4v-91.3h28.7v9.7c5.8-7.4,13.5-11.1,23-11.1s6.3.5,8.9,1.5Z"/>
      <path class="st4" d="M1345.4,1246.6c7.4,6.9,11.1,17,11.1,30.1v52.9h-28.7v-7.5c-6.8,6.5-15.6,9.7-26.3,9.7s-17.6-2.7-23.1-8.1-8.3-12.1-8.3-20.2,3.2-15.2,9.6-20c6.4-4.8,15.1-7.2,26.2-7.2h19.2v-1.5c0-3.5-1.1-6.4-3.4-8.5s-5.8-3.2-10.5-3.2-7.9.9-11.2,2.6c-3.3,1.8-7.2,4.6-11.6,8.5l-14.6-19.9c11.9-12.2,25.7-18.3,41.3-18.3s22.9,3.5,30.3,10.4ZM1321.3,1306c2.6-2.4,3.9-5.6,3.9-9.8v-.7h-14.8c-5.6,0-8.4,2.3-8.4,6.9s3.1,7.1,9.3,7.1,7.3-1.2,10-3.6Z"/>
      <path class="st4" d="M1462.6,1249.5c8.2,8.9,12.3,20.3,12.3,34.3s-4.1,25.5-12.3,34.5-18.7,13.5-31.5,13.5-17.4-2.8-23.4-8.4v39.1h-31.4v-124.1h28.7v9.5c5.7-7.8,14.4-11.7,26.1-11.7s23.3,4.4,31.5,13.3ZM1437.5,1298.2c3.5-3.4,5.3-8.2,5.3-14.2s-1.7-10.8-5.2-14.2c-3.5-3.4-7.7-5.1-12.7-5.1s-9,1.6-12.5,4.9-5.2,8-5.2,14.2,1.7,11,5.2,14.4c3.5,3.4,7.6,5.1,12.5,5.1s9.1-1.7,12.6-5.1Z"/>
      <path class="st4" d="M1570.6,1246.4c6.3,6.8,9.4,15.8,9.4,27v56.2h-31.4v-51.7c0-4-1.2-7.3-3.7-9.8-2.5-2.5-5.7-3.7-9.6-3.7s-7.1,1.2-9.5,3.7c-2.4,2.5-3.7,5.8-3.7,9.8v51.7h-31.4v-136.9h31.4v52c6.5-5.7,14.4-8.6,23.7-8.6s18.5,3.4,24.7,10.2Z"/>
      <path class="st4" d="M1629,1192.8c3.8,3.6,5.7,8,5.7,13.2s-1.9,9.5-5.7,13.1-8.3,5.4-13.7,5.4-9.9-1.8-13.6-5.3c-3.7-3.5-5.6-7.9-5.6-13.1s1.9-9.6,5.6-13.2c3.7-3.6,8.2-5.4,13.6-5.4s9.9,1.8,13.7,5.4ZM1631.2,1329.6h-31.4v-91.3h31.4v91.3Z"/>
      <path class="st4" d="M1721.5,1242.7c7.1,4.4,12.5,10.3,16.2,17.9l-21.7,16.6c-5.2-8.2-11.5-12.2-18.8-12.2s-9.9,1.8-13.1,5.3c-3.3,3.5-4.9,8.1-4.9,13.7s1.6,10.2,4.9,13.7c3.3,3.5,7.7,5.3,13.1,5.3s13.6-4,18.8-12l21.7,16.4c-3.8,7.5-9.2,13.5-16.2,17.9-7.1,4.4-15.3,6.6-24.6,6.6-14,0-25.8-4.6-35.4-13.8-9.6-9.2-14.4-20.5-14.4-34s4.8-24.9,14.4-34,21.4-13.8,35.4-13.8,17.6,2.2,24.6,6.6Z"/>
      <path class="st4" d="M1819.9,1249.5l-14.8,19.2c-6.2-5.2-12.7-7.9-19.4-7.9s-6.4,1.2-6.4,3.5.2,1.4.7,2c.5.6,1.1,1.1,1.9,1.5s2,.9,3.6,1.5l9.1,3.7c9.1,3.7,15.9,7.5,20.2,11.7,4.3,4.1,6.5,9.8,6.5,17s-3.5,16.8-10.6,22.2c-7.1,5.4-16.1,8.1-27.2,8.1-17.3,0-30.4-5.8-39.3-17.5l14.6-18.6c7.8,7.5,16.2,11.3,25.2,11.3s8-1.3,8-4-1.8-3.1-5.3-4.6l-10.2-4.2c-9-3.7-15.7-7.7-20-12-4.3-4.4-6.5-10.2-6.5-17.3s3.2-16.1,9.7-21.2c6.5-5.1,15-7.7,25.7-7.7s25.7,4.5,34.3,13.5Z"/>
    </g>
  </g>
  <g class="st3">
    <g class="st3">
      <path class="st2" d="M855.6,1533.1h44.2v9.9h-55.2v-93.2h11v83.3Z"/>
      <path class="st2" d="M927.1,1542.9h-11v-93.2h11v93.2Z"/>
      <path class="st2" d="M1029.1,1449.7l-40.4,94.8h-4.1l-40.4-94.8h12.1l30.4,72.9,30.2-72.9h12.1Z"/>
      <path class="st2" d="M1106.1,1459.6h-48.7v28.5h37.3v9.9h-37.3v35h50.4v9.9h-61.5v-93.2h59.8v9.9Z"/>
    </g>
  </g>
  <line class="st1" x1="1184.8" y1="1493.6" x2="1815.8" y2="1493.6"/>
  <line class="st1" x1="138.7" y1="1493.6" x2="766.8" y2="1493.6"/>
  <g>
    <path class="st5" d="M226.3,395.8h1507c44.2,0,80.1,35.9,80.1,80.1v535.2c0,44.2-35.9,80.1-80.1,80.1H226.3c-44.2,0-80.1-35.9-80.1-80.1V475.9c0-44.2,35.9-80.1,80.1-80.1Z"/>
    <path class="st4" d="M1733.3,403.4c40,0,72.5,32.6,72.5,72.5v535.2c0,40-32.6,72.5-72.5,72.5H226.3c-40,0-72.5-32.6-72.5-72.5V475.9c0-40,32.6-72.5,72.5-72.5h1507M1733.3,388.3H226.3c-48.4,0-87.6,39.2-87.6,87.6v535.2c0,48.4,39.2,87.6,87.6,87.6h1507c48.4,0,87.6-39.2,87.6-87.6V475.9c0-48.4-39.2-87.6-87.6-87.6h0Z"/>
  </g>
  <circle class="st0" cx="1248.3" cy="743.5" r="100.9"/>
  <g class="st3">
    <g class="st3">
      <path class="st2" d="M632.7,643.4l177.5,98.4v10l-177.5,98.4v-29.6l136.5-74-136.5-73.6v-29.6Z"/>
    </g>
  </g>
</svg>