<?xml version="1.0" encoding="UTF-8"?>
<svg id="Layer_2" data-name="Layer 2" xmlns="http://www.w3.org/2000/svg" viewBox="0 0 112.64 112.64">
  <g id="Layer_1-2" data-name="Layer 1">
    <path id="Prog_25-50" data-name="Prog 25-50" d="M112.57,53.5c-.04-.85-.11-1.7-.19-2.55,0-.07,0-.14-.02-.21-1.02-10.33-4.83-19.84-10.66-27.77-.04-.06-.09-.12-.13-.18-.46-.61-.93-1.21-1.41-1.81-.1-.13-.2-.26-.31-.39-.45-.55-.93-1.09-1.4-1.63-.14-.16-.27-.32-.41-.47-1.24-1.36-2.54-2.66-3.9-3.9-.15-.14-.32-.27-.47-.41-.54-.48-1.07-.95-1.63-1.4-.13-.11-.26-.2-.39-.31-.59-.48-1.19-.95-1.81-1.41-.06-.05-.12-.09-.18-.13C81.73,5.1,72.22,1.29,61.89.28c-.07,0-.14,0-.21-.02-.84-.08-1.69-.15-2.55-.19-.94-.05-1.88-.07-2.82-.07C25.21,0,0,25.21,0,56.32s25.21,56.32,56.32,56.32,56.32-25.21,56.32-56.32c0-.94-.02-1.88-.07-2.82ZM56.32,102.64c-25.54,0-46.32-20.78-46.32-46.32S30.78,10,56.32,10v46.32h46.32c0,25.54-20.78,46.32-46.32,46.32Z"/>
  </g>
</svg>