<?xml version="1.0" encoding="UTF-8"?>
<svg id="Layer_2" data-name="Layer 2" xmlns="http://www.w3.org/2000/svg" viewBox="0 0 126.44 113.75">
  <g id="Layer_1-2" data-name="Layer 1">
    <g>
      <path d="M16.02,112.75c-5.42,0-10.28-2.8-12.99-7.5-2.71-4.69-2.71-10.3,0-15L50.23,8.5c2.71-4.69,7.57-7.5,12.99-7.5s10.28,2.8,12.99,7.5l47.2,81.76c2.71,4.69,2.71,10.3,0,15-2.71,4.69-7.57,7.5-12.99,7.5H16.02ZM63.39,74.63c-3.92,0-7.19,1.3-9.71,3.85-2.52,2.56-3.79,5.72-3.79,9.42s1.28,6.96,3.79,9.47,5.78,3.79,9.7,3.79,6.94-1.28,9.42-3.8c2.48-2.52,3.74-5.7,3.74-9.47s-1.26-6.86-3.73-9.41c-2.48-2.56-5.65-3.86-9.42-3.86ZM58.68,23.55c-2,0-3.93.85-5.28,2.32s-2.04,3.46-1.87,5.46l2.65,31.79c.31,3.69,3.45,6.58,7.16,6.58h3.65c3.71,0,6.86-2.9,7.16-6.6l2.57-31.79c.16-1.99-.52-3.98-1.88-5.45-1.36-1.47-3.28-2.31-5.28-2.31h-8.87Z"/>
      <path d="M63.22,1.5c5.24,0,9.93,2.71,12.55,7.25l47.2,81.76c2.62,4.54,2.62,9.96,0,14.5-2.62,4.54-7.31,7.25-12.55,7.25H16.02c-5.24,0-9.93-2.71-12.55-7.25-2.62-4.54-2.62-9.96,0-14.5L50.67,8.75c2.62-4.54,7.31-7.25,12.55-7.25M61.33,70.2h3.65c3.97,0,7.34-3.1,7.66-7.06l2.57-31.79c.17-2.13-.56-4.25-2.01-5.83-1.45-1.57-3.51-2.47-5.65-2.47h-8.87c-2.14,0-4.2.9-5.65,2.48-1.45,1.58-2.18,3.7-2,5.84l2.65,31.79c.33,3.95,3.69,7.04,7.65,7.04M63.39,101.67c3.91,0,7.2-1.33,9.78-3.95,2.57-2.61,3.88-5.92,3.88-9.82s-1.3-7.11-3.87-9.76c-2.58-2.66-5.87-4.01-9.78-4.01s-7.45,1.35-10.06,4c-2.61,2.65-3.94,5.94-3.94,9.77s1.33,7.21,3.94,9.83c2.62,2.62,6,3.94,10.06,3.94M63.22.5c-5.22,0-10.44,2.58-13.42,7.75L2.6,90.01c-5.96,10.33,1.49,23.24,13.42,23.24h94.41c11.93,0,19.38-12.91,13.42-23.24L76.64,8.25c-2.98-5.17-8.2-7.75-13.42-7.75h0ZM61.33,69.2c-3.47,0-6.37-2.66-6.66-6.13l-2.65-31.79c-.32-3.9,2.75-7.24,6.66-7.24h8.87c3.9,0,6.97,3.33,6.66,7.22l-2.57,31.79c-.28,3.47-3.18,6.14-6.66,6.14h-3.65ZM63.39,100.67c-3.8,0-6.92-1.22-9.35-3.65-2.43-2.43-3.65-5.47-3.65-9.12s1.22-6.59,3.65-9.06c2.43-2.47,5.55-3.71,9.35-3.71s6.67,1.24,9.06,3.71c2.39,2.47,3.59,5.49,3.59,9.06s-1.2,6.69-3.59,9.12c-2.39,2.43-5.42,3.65-9.06,3.65h0Z"/>
    </g>
  </g>
</svg>