<?xml version="1.0" encoding="UTF-8"?>
<svg id="Layer_1" xmlns="http://www.w3.org/2000/svg" version="1.1" viewBox="0 0 64 64">
  <!-- Generator: Adobe Illustrator 29.7.1, SVG Export Plug-In . SVG Version: 2.1.1 Build 8)  -->
  <defs>
    <style>
      .st0 {
        fill: currentColor;
      }
    </style>
  </defs>
  <path class="st0" d="M58.7,21.3h-8v.8c0,2.5-2,4.5-4.5,4.5h-28.3c-2.5,0-4.5-2-4.5-4.5v-.8H5.4v-5.3h8v-.8c0-2.5,2-4.5,4.5-4.5h28.3c2.5,0,4.5,2,4.5,4.5v.8h8v5.3ZM58.7,42.7h-13.3v-.8c0-2.5-2-4.5-4.5-4.5h-17.7c-2.5,0-4.5,2-4.5,4.5v.8H5.3v5.3h13.3v.8c0,2.5,2,4.5,4.5,4.5h17.7c2.5,0,4.5-2,4.5-4.5v-.8h13.3v-5.3Z"/>
</svg>