<?xml version="1.0" encoding="UTF-8"?>
<svg id="Layer_1" xmlns="http://www.w3.org/2000/svg" version="1.1" viewBox="0 0 64 64">
  <!-- Generator: Adobe Illustrator 29.7.1, SVG Export Plug-In . SVG Version: 2.1.1 Build 8)  -->
  <defs>
    <style>
      .st0 {
        fill: currentColor;
      }
    </style>
  </defs>
  <path class="st0" d="M18.7,6c1.1,0,2,.9,2,2v48c0,1.1-.9,2-2,2s-2-.9-2-2V8c0-1.1.9-2,2-2M45.3,6c1.1,0,2,.9,2,2v48c0,1.1-.9,2-2,2s-2-.9-2-2V8c0-1.1.9-2,2-2M18.5,11.3c-1.2,0-2.2,0-3,0-.8,0-1.6.2-2.4.5-1.8.7-3.2,2.2-4,4-.3.8-.4,1.6-.5,2.4,0,.8,0,1.8,0,3v21.5c0,1.2,0,2.2,0,3,0,.8.2,1.6.5,2.4.7,1.8,2.2,3.2,4,4,.8.3,1.6.4,2.4.5.8,0,1.8,0,3,0h.1c1.2,0,2.2,0,3,0,.8,0,1.6-.2,2.4-.5,1.8-.7,3.2-2.2,4-4,.3-.8.4-1.6.5-2.4,0-.8,0-1.8,0-3v-21.5c0-1.2,0-2.2,0-3,0-.8-.2-1.6-.5-2.4-.7-1.8-2.2-3.2-4-4-.8-.3-1.6-.4-2.4-.5-.8,0-1.8,0-3,0h-.1ZM45.3,16.7c-1.2,0-2.2,0-3,0-.8,0-1.6.2-2.4.5-1.8.7-3.2,2.2-4,4-.3.8-.4,1.6-.5,2.4,0,.8,0,1.8,0,3v10.8c0,1.2,0,2.2,0,3,0,.8.2,1.6.5,2.4.7,1.8,2.2,3.2,4,4,.8.3,1.6.4,2.4.5.8,0,1.8,0,3,0h.1c1.2,0,2.2,0,3,0,.8,0,1.6-.2,2.4-.5,1.8-.7,3.2-2.2,4-4,.3-.8.4-1.6.5-2.4,0-.8,0-1.8,0-3v-10.8c0-1.2,0-2.2,0-3,0-.8-.2-1.6-.5-2.4-.7-1.8-2.2-3.2-4-4-.8-.3-1.6-.4-2.4-.5-.8,0-1.8,0-3,0h-.1Z"/>
</svg>
