<?xml version="1.0" encoding="UTF-8"?>
<svg id="Layer_1" data-name="Layer 1" xmlns="http://www.w3.org/2000/svg" viewBox="0 0 64 64">
  <defs>
    <style>
      .cls-1 {
        fill: currentColor;
      }
    </style>
  </defs>
  <path class="cls-1" d="M57.97,18.69c0,1.1-.9,2-2,2H7.97c-1.1,0-2-.9-2-2s.9-2,2-2h48c1.1,0,2,.9,2,2M57.97,45.36c0,1.1-.9,2-2,2H7.97c-1.1,0-2-.9-2-2s.9-2,2-2h48c1.1,0,2,.9,2,2M52.69,18.57c0-1.19,0-2.18-.05-2.99-.03-.83-.2-1.65-.51-2.42-.74-1.8-2.17-3.23-3.97-3.97-.77-.32-1.57-.45-2.42-.5-.81-.06-1.8-.06-2.99-.06h-21.47c-1.19,0-2.18,0-2.99.05-.85.06-1.65.18-2.42.51-1.8.74-3.23,2.17-3.97,3.97-.32.77-.45,1.57-.5,2.42-.06.81-.06,1.8-.06,2.99v.13c0,1.19,0,2.18.05,2.99.06.85.18,1.65.51,2.42.74,1.8,2.17,3.23,3.97,3.97.77.32,1.57.45,2.42.5.81.06,1.8.06,2.99.06h21.47c1.19,0,2.18,0,2.99-.05.83-.03,1.65-.2,2.42-.51,1.8-.74,3.23-2.17,3.97-3.97.32-.77.45-1.57.5-2.42.06-.81.06-1.8.06-2.99v-.13ZM47.31,45.29c0-1.19,0-2.18-.05-2.99-.03-.83-.2-1.65-.51-2.42-.74-1.8-2.17-3.23-3.97-3.97-.77-.32-1.57-.45-2.42-.5-.81-.06-1.8-.06-2.99-.06h-10.8c-1.19,0-2.18,0-2.99.05-.85.06-1.65.18-2.42.51-1.8.74-3.23,2.17-3.97,3.97-.32.77-.45,1.57-.5,2.42-.06.81-.06,1.8-.06,2.99v.13c0,1.19,0,2.18.05,2.99.06.85.18,1.65.51,2.42.74,1.8,2.17,3.23,3.97,3.97.77.32,1.57.45,2.42.5.81.06,1.8.06,2.99.06h10.8c1.19,0,2.18,0,2.99-.05.83-.03,1.65-.2,2.42-.51,1.8-.74,3.23-2.17,3.97-3.97.32-.77.45-1.57.5-2.42.06-.81.06-1.8.06-2.99v-.13Z"/>
</svg>
