<?xml version="1.0" encoding="UTF-8"?>
<svg id="Layer_1" xmlns="http://www.w3.org/2000/svg" version="1.1" viewBox="0 0 64 64">
  <!-- Generator: Adobe Illustrator 29.7.1, SVG Export Plug-In . SVG Version: 2.1.1 Build 8)  -->
  <defs>
    <style>
      .st0 {
        fill: currentColor;
      }
    </style>
  </defs>
  <path class="st0" d="M21.3,5.3v8h.8c2.5,0,4.5,2,4.5,4.5v28.3c0,2.5-2,4.5-4.5,4.5h-.8v8h-5.3v-8h-.8c-2.5,0-4.5-2-4.5-4.5v-28.3c0-2.5,2-4.5,4.5-4.5h.8V5.3h5.3ZM42.7,5.3v13.3h-.8c-2.5,0-4.5,2-4.5,4.5v17.7c0,2.5,2,4.5,4.5,4.5h.8v13.3h5.3v-13.3h.8c2.5,0,4.5-2,4.5-4.5v-17.7c0-2.5-2-4.5-4.5-4.5h-.8V5.3h-5.3Z"/>
</svg>