<?xml version="1.0" encoding="UTF-8"?>
<svg id="Layer_1" xmlns="http://www.w3.org/2000/svg" version="1.1" viewBox="0 0 64 64">
  <!-- Generator: Adobe Illustrator 29.7.1, SVG Export Plug-In . SVG Version: 2.1.1 Build 8)  -->
  <defs>
    <style>
      .st0 {
        fill: currentColor;
        fill-rule: evenodd;
      }
    </style>
  </defs>
  <path class="st0" d="M6.9,3.4C6.9,1.5,5.2,0,3.2,0S0,1.8,0,3.6c0,6,0,25.6,0,40.9s8.7,19.5,19.5,19.5h40.9c1.9,0,3.5-1.4,3.6-3.2s-1.5-3.6-3.4-3.6H19.6c-7,0-12.7-5.7-12.7-12.7h0s10.1-10.8,10.1-10.8c1.3.8,2.9,1.2,4.5,1.2s4-.7,5.5-1.9l6.5,6.1c-1.7,5.2,1.5,10.8,7,11.9s7.4-.9,9.4-4,1.8-8.1-.9-11.1h0s5.3-14.6,5.3-14.6c5.1-.5,8.9-5,8.3-10.2s-4.9-8.3-9.6-8-9,4.8-8.5,9.9c.2,2.5,1.4,4.7,3.3,6.3l-4.9,13.6c-1.7-.1-3.3.2-4.8,1l-7-6.6c-.1-.1-.2-.2-.4-.3,0,0,0-.1,0-.2.6-5.2-3.5-10-8.8-10.2s-9.5,4-9.5,9.1c0,.8.1,1.7.3,2.5h-.1c0,.1-5.7,6.2-5.7,6.2V3.4Z"/>
</svg>