<?xml version="1.0" encoding="UTF-8"?>
<svg id="Layer_1" xmlns="http://www.w3.org/2000/svg" version="1.1" viewBox="0 0 64 64">
  <!-- Generator: Adobe Illustrator 29.7.1, SVG Export Plug-In . SVG Version: 2.1.1 Build 8)  -->
  <defs>
    <style>
      .st0 {
        fill: currentColor;
      }
    </style>
  </defs>
  <path class="st0" d="M35,24.3l1.5-.4-.7-2.9-1.5.4c-6.1,1.6-10.9,6.4-12.2,12.6l-.3,1.5,3,.6.3-1.5c1.1-5.1,5-9.1,10-10.3"/>
  <path class="st0" d="M42.4,21.4c-1.9-7.2-8.4-12.5-16.2-12.5s-16.7,7.5-16.7,16.7,5.4,14.4,12.6,16.2c1.9,7.3,8.6,12.5,16.2,12.5s16.7-7.5,16.7-16.7-5.3-14.4-12.6-16.2M12.6,25.6c0-7.5,6.1-13.7,13.7-13.7s13.7,6.1,13.7,13.7-6.1,13.7-13.7,13.7-13.7-6.1-13.7-13.7M38.4,51.3c-5.8,0-10.9-3.7-12.8-9h.7c1,0,2.1,0,3.1-.3l9.2,9.2h-.2M42.3,50.7l-9.6-9.6c1.5-.6,2.9-1.4,4.1-2.5l9.9,9.9c-1.3,1-2.8,1.8-4.4,2.2h0ZM48.8,46.4l-9.9-9.9c1.1-1.3,2-2.7,2.6-4.2l9.7,9.7c-.5,1.6-1.4,3.1-2.5,4.4h0ZM52,38.4l-9.4-9.4c.2-1.1.4-2.3.3-3.4v-.9c5.5,1.9,9.1,7.1,9.1,12.9v.8h0Z"/>
  <rect class="st0" x="2" y="20.4" width="4" height="8" transform="translate(28.5 20.8) rotate(90.9)"/>
  <rect class="st0" x="21.8" y="2" width="8" height="4" transform="translate(30.2 -21.7) rotate(90.9)"/>
  <rect class="st0" x="8.6" y="5.4" width="4" height="8" transform="translate(24.8 8.7) rotate(135.9)"/>
  <rect class="st0" x="5" y="38.6" width="8" height="4" transform="translate(43.7 63.5) rotate(135.9)"/>
  <rect class="st0" x="37.4" y="7.3" width="8" height="4" transform="translate(77.5 -12.8) rotate(135.9)"/>
</svg>