<?xml version="1.0" encoding="UTF-8"?>
<svg id="Layer_1" xmlns="http://www.w3.org/2000/svg" version="1.1" viewBox="0 0 64 64">
  <!-- Generator: Adobe Illustrator 29.7.1, SVG Export Plug-In . SVG Version: 2.1.1 Build 8)  -->
  <defs>
    <style>
      .st0 {
        fill: currentColor;
      }
    </style>
  </defs>
  <path class="st0" d="M12.4,33.4l-.9.4c-1,.5-2.2,0-2.7-.9-.5-1,0-2.2.9-2.7h0l2.7-1.3c1-.5,2.2,0,2.7.9,0,0,0,0,0,.1h0s0,0,0,0v.2c.2.2.3.5.5.8.4.7.9,1.7,1.7,2.8,1.6,2.2,4,4.8,7.2,6.5,2.3,1.1,4.8,1.7,7.3,1.7,2.5,0,5-.6,7.3-1.7,3.3-1.6,5.7-4.2,7.2-6.5.8-1.2,1.5-2.4,2.1-3.7v-.2c0,0,.1,0,.1,0,.4-1,1.6-1.5,2.6-1.1,0,0,.1,0,.2,0l2.7,1.3c1,.5,1.4,1.7.9,2.7-.5,1-1.7,1.4-2.7.9l-.9-.4c-.6,1-1.2,2-1.9,3l.9.8c.8.7,1,2,.3,2.8-.7.8-2,1-2.8.3h0l-.9-.8c-1.3,1.3-2.7,2.5-4.2,3.4l.8,1.5c.5,1,.2,2.2-.8,2.7-1,.5-2.2.2-2.7-.8l-.9-1.6c-1.7.7-3.5,1.1-5.3,1.3v2.1c0,1.1-.9,2-2,2s-2-.9-2-2v-2.1c-1.8-.2-3.6-.6-5.3-1.3l-.9,1.6c-.5,1-1.7,1.3-2.7.8-1-.5-1.3-1.7-.8-2.7l.8-1.5c-1.5-1-2.9-2.1-4.2-3.4l-.9.8c-.8.7-2.1.7-2.8-.1s-.7-2.1.1-2.8c0,0,0,0,.1-.1l.9-.8c-.7-1-1.3-2-1.9-3"/>
</svg>