<?xml version="1.0" encoding="UTF-8" standalone="no"?>
<!-- Created with Inkscape (http://www.inkscape.org/) -->

<svg
   xmlns:dc="http://purl.org/dc/elements/1.1/"
   xmlns:cc="http://creativecommons.org/ns#"
   xmlns:rdf="http://www.w3.org/1999/02/22-rdf-syntax-ns#"
   xmlns:svg="http://www.w3.org/2000/svg"
   xmlns="http://www.w3.org/2000/svg"
   xmlns:sodipodi="http://sodipodi.sourceforge.net/DTD/sodipodi-0.dtd"
   xmlns:inkscape="http://www.inkscape.org/namespaces/inkscape"
   width="202.6234mm"
   height="60.766232mm"
   viewBox="0 0 717.95692 215.31342"
   id="svg4267"
   version="1.1"
   inkscape:version="0.91 r13725"
   sodipodi:docname="omnianormal.svg"
   inkscape:export-filename="E:\OmniaTV\OmniaTV-Assets\Omnia Logo 2017\PNGS\omnianormal.png"
   inkscape:export-xdpi="359"
   inkscape:export-ydpi="359">
  <defs
     id="defs4269" />
  <sodipodi:namedview
     id="base"
     pagecolor="#ffffff"
     bordercolor="#666666"
     borderopacity="1.0"
     inkscape:pageopacity="0.0"
     inkscape:pageshadow="2"
     inkscape:zoom="0.7"
     inkscape:cx="380.24962"
     inkscape:cy="73.19647"
     inkscape:document-units="px"
     inkscape:current-layer="layer1"
     showgrid="false"
     fit-margin-top="10"
     fit-margin-left="10"
     fit-margin-right="10"
     fit-margin-bottom="10"
     inkscape:window-width="1844"
     inkscape:window-height="1057"
     inkscape:window-x="68"
     inkscape:window-y="-8"
     inkscape:window-maximized="1" />
  <metadata
     id="metadata4272">
    <rdf:RDF>
      <cc:Work
         rdf:about="">
        <dc:format>image/svg+xml</dc:format>
        <dc:type
           rdf:resource="http://purl.org/dc/dcmitype/StillImage" />
        <dc:title></dc:title>
      </cc:Work>
    </rdf:RDF>
  </metadata>
  <g
     inkscape:label="Layer 1"
     inkscape:groupmode="layer"
     id="layer1"
     transform="translate(513.26418,189.58022)">
    <g
       id="OmniaNormal"
       transform="translate(-519.18488,-202.8244)"
       inkscape:label="#norm">
      <path
         id="path4359"
         d="m 113.03131,49.769604 a 71.682676,71.682676 0 0 0 -71.677544,71.677376 71.682676,71.682676 0 0 0 71.677544,71.67755 71.682676,71.682676 0 0 0 71.67754,-71.67755 71.682676,71.682676 0 0 0 -71.67754,-71.677376 z m 0,21.03668 a 50.641745,50.641745 0 0 1 50.6407,50.640696 50.641745,50.641745 0 0 1 -50.6407,50.64071 50.641745,50.641745 0 0 1 -50.640705,-50.64071 50.641745,50.641745 0 0 1 50.640705,-50.640696 z"
         style="opacity:1;fill:#333333;fill-opacity:1;stroke:none;stroke-width:5;stroke-linecap:round;stroke-linejoin:miter;stroke-miterlimit:4;stroke-dasharray:none;stroke-dashoffset:0;stroke-opacity:1"
         inkscape:connector-curvature="0" />
      <circle
         style="opacity:1;fill:#00a1b9;fill-opacity:1;stroke:none;stroke-width:5;stroke-linecap:round;stroke-linejoin:miter;stroke-miterlimit:4;stroke-dasharray:none;stroke-dashoffset:0;stroke-opacity:1"
         id="circle4361"
         cx="113.02676"
         cy="121.45084"
         r="40.293743" />
      <circle
         r="6.8352127"
         cy="101.6174"
         cx="133.0329"
         id="circle4363"
         style="opacity:1;fill:#ffffff;fill-opacity:1;stroke:none;stroke-width:5;stroke-linecap:round;stroke-linejoin:miter;stroke-miterlimit:4;stroke-dasharray:none;stroke-dashoffset:0;stroke-opacity:1" />
      <path
         d="m 287.81943,81.318924 c -10.44583,0 -18.89454,3.37955 -25.19266,9.83127 -5.37652,-6.45172 -12.75001,-9.83127 -22.27408,-9.83127 -8.60231,0 -15.515,2.61138 -21.04512,7.8343 l 0,-5.99092 -24.11729,0 0,76.806946 26.42147,0 0,-43.47279 c 0,-3.53315 0.92099,-6.29813 2.91874,-8.2951 1.84337,-1.99698 4.45475,-3.07234 7.6807,-3.07234 3.07218,0 5.68372,1.07552 7.83429,3.07234 1.99698,1.99697 3.07219,4.76195 3.07219,8.2951 l 0,43.47279 26.42163,0 0,-43.47279 c 0,-3.53315 0.92098,-6.29813 2.91874,-8.2951 1.84337,-1.99698 4.45475,-3.07234 7.68069,-3.07234 3.07219,0 5.68373,1.07552 7.8343,3.07234 1.99698,1.99697 3.07219,4.76195 3.07219,8.2951 l 0,43.47279 26.42163,0 0,-47.31314 c 0,-9.52407 -2.76514,-17.051156 -7.9879,-22.734876 -5.37652,-5.68357 -12.59641,-8.60231 -21.65952,-8.60231 z"
         style="font-style:normal;font-variant:normal;font-weight:normal;font-stretch:normal;font-size:9.84079456px;line-height:125%;font-family:CeraGR-Black;-inkscape-font-specification:'CeraGR-Black, Normal';text-align:start;letter-spacing:-0.16px;word-spacing:0px;writing-mode:lr-tb;text-anchor:start;fill:#333333;fill-opacity:1;stroke:none;stroke-width:1px;stroke-linecap:butt;stroke-linejoin:miter;stroke-opacity:1"
         id="path4365"
         inkscape:connector-curvature="0" />
      <path
         d="m 377.38202,81.318924 c -8.75591,0 -15.9758,2.76498 -21.65952,8.1415 l 0,-6.29812 -24.1173,0 0,76.806946 26.42148,0 0,-43.47279 c 0,-3.37954 0.92098,-5.99093 3.07234,-8.1415 1.99697,-2.15058 4.60835,-3.22594 7.9879,-3.22594 3.22594,0 5.83732,1.07552 7.98789,3.22594 2.15058,2.15057 3.22595,4.76196 3.22595,8.1415 l 0,43.47279 26.42163,0 0,-47.31314 c 0,-9.52407 -2.76514,-17.051156 -7.98806,-22.734876 -5.37636,-5.68357 -12.44265,-8.60231 -21.35231,-8.60231 z"
         style="font-style:normal;font-variant:normal;font-weight:normal;font-stretch:normal;font-size:9.84079456px;line-height:125%;font-family:CeraGR-Black;-inkscape-font-specification:'CeraGR-Black, Normal';text-align:start;letter-spacing:-0.16px;word-spacing:0px;writing-mode:lr-tb;text-anchor:start;fill:#333333;fill-opacity:1;stroke:none;stroke-width:1px;stroke-linecap:butt;stroke-linejoin:miter;stroke-opacity:1"
         id="path4367"
         inkscape:connector-curvature="0" />
      <path
         inkscape:connector-curvature="0"
         id="path4949"
         d="m 433.97306,48.677252 c -4.60851,0 -8.44886,1.53602 -11.52104,4.60836 -3.07234,3.07234 -4.60851,6.75909 -4.60851,11.06024 0,4.45475 1.53601,8.1415 4.60851,11.06024 3.07218,3.07218 6.91253,4.45475 11.52104,4.45475 4.45475,0 8.2951,-1.38304 11.52104,-4.45475 3.07219,-3.07234 4.76196,-6.75909 4.76196,-11.06024 0,-4.30115 -1.68977,-7.9879 -4.76196,-11.06024 -3.22594,-3.07219 -7.06629,-4.60836 -11.52104,-4.60836 z"
         style="font-style:normal;font-variant:normal;font-weight:normal;font-stretch:normal;font-size:9.84079456px;line-height:125%;font-family:CeraGR-Black;-inkscape-font-specification:'CeraGR-Black, Normal';text-align:start;letter-spacing:-0.16px;word-spacing:0px;writing-mode:lr-tb;text-anchor:start;fill:#333333;fill-opacity:1;stroke:none;stroke-width:1px;stroke-linecap:butt;stroke-linejoin:miter;stroke-opacity:1" />
      <path
         id="path4369"
         transform="translate(-1020.9683,-37.157787)"
         d="m 1468.25,120.32031 c -3.9212,2.57611 -8.3677,3.76953 -13.3438,3.76953 -4.9511,0 -9.2903,-1.10248 -13.0214,-3.47851 l 0,76.51562 26.4218,0 0,-76.80664 -0.057,0 z"
         style="font-style:normal;font-variant:normal;font-weight:normal;font-stretch:normal;font-size:9.84079456px;line-height:125%;font-family:CeraGR-Black;-inkscape-font-specification:'CeraGR-Black, Normal';text-align:start;letter-spacing:-0.16px;word-spacing:0px;writing-mode:lr-tb;text-anchor:start;fill:#333333;fill-opacity:1;stroke:none;stroke-width:1px;stroke-linecap:butt;stroke-linejoin:miter;stroke-opacity:1"
         inkscape:connector-curvature="0" />
      <path
         d="m 495.71724,81.318924 c -13.21081,0 -24.73186,5.22292 -34.71673,15.36139 l 12.28905,16.743956 c 3.68675,-3.22594 6.91269,-5.53012 9.67767,-7.06629 2.76514,-1.53601 5.99093,-2.30417 9.52407,-2.30417 3.99395,0 6.91269,0.92098 8.75606,2.76498 1.84338,1.84337 2.91859,4.14755 2.91859,7.06629 l 0,1.2285 -16.1294,0 c -9.37047,0 -16.74396,2.15057 -22.12048,6.14452 -5.37636,3.99395 -7.9879,9.67767 -7.9879,16.74381 0,6.75908 2.30418,12.44281 6.91269,17.05116 4.60835,4.60851 11.21384,6.75909 19.50894,6.75909 8.90966,0 16.283,-2.61154 22.12032,-8.14166 l 0,6.29828 24.11746,0 0,-44.548 c 0,-11.06024 -3.22595,-19.508936 -9.37047,-25.346256 -6.29813,-5.83733 -14.74699,-8.75607 -25.49987,-8.75607 z m -3.22594,61.752766 c -5.22292,0 -7.8343,-1.99697 -7.8343,-5.99092 0,-3.84035 2.30418,-5.83733 7.06629,-5.83733 l 12.44266,0 0,0.61503 c 0,3.53315 -1.2285,6.29813 -3.37955,8.29511 -2.15057,1.99697 -4.91556,2.91874 -8.2951,2.91874 z"
         style="font-style:normal;font-variant:normal;font-weight:normal;font-stretch:normal;font-size:9.84079456px;line-height:125%;font-family:CeraGR-Black;-inkscape-font-specification:'CeraGR-Black, Normal';text-align:start;letter-spacing:-0.16px;word-spacing:0px;writing-mode:lr-tb;text-anchor:start;fill:#333333;fill-opacity:1;stroke:none;stroke-width:1px;stroke-linecap:butt;stroke-linejoin:miter;stroke-opacity:1"
         id="path4371"
         inkscape:connector-curvature="0" />
      <path
         d="m 588.87307,138.15598 c -4.91571,0 -8.29525,-0.76801 -10.29223,-2.30418 -1.99697,-1.53601 -2.91858,-4.14755 -2.91858,-7.8343 l 0,-22.73488 20.58431,0 0,-22.120316 -20.58431,0 0,-18.43374 -26.42163,0 0,18.43374 -11.67465,0 0,22.120316 11.67465,0 0,25.34642 c 0,10.44568 2.91874,18.12637 8.75606,23.34929 5.83732,5.22276 14.13242,7.8343 25.03906,7.8343 5.22276,0 10.29208,-0.61503 15.51499,-1.84338 l 0,-22.12048 c -5.53012,0.30752 -8.75606,0.30752 -9.67767,0.30752 z"
         style="font-style:normal;font-variant:normal;font-weight:normal;font-stretch:normal;font-size:9.84079456px;line-height:125%;font-family:CeraGR-Black;-inkscape-font-specification:'CeraGR-Black, Normal';text-align:start;letter-spacing:-0.16px;word-spacing:0px;writing-mode:lr-tb;text-anchor:start;fill:#00a1b9;fill-opacity:1;stroke:none;stroke-width:1px;stroke-linecap:butt;stroke-linejoin:miter;stroke-opacity:1"
         id="path4373"
         inkscape:connector-curvature="0" />
      <path
         d="m 660.48693,83.162304 -15.51499,34.563126 -15.6686,-34.563126 -27.9578,0 39.32524,78.650326 8.44871,0 39.32508,-78.650326 -27.95764,0 z"
         style="font-style:normal;font-variant:normal;font-weight:normal;font-stretch:normal;font-size:9.84079456px;line-height:125%;font-family:CeraGR-Black;-inkscape-font-specification:'CeraGR-Black, Normal';text-align:start;letter-spacing:-0.16px;word-spacing:0px;writing-mode:lr-tb;text-anchor:start;fill:#00a1b9;fill-opacity:1;stroke:none;stroke-width:1px;stroke-linecap:butt;stroke-linejoin:miter;stroke-opacity:1"
         id="path4375"
         inkscape:connector-curvature="0" />
    </g>
  </g>
</svg>
