<?xml version="1.0" encoding="UTF-8"?>
<svg id="Layer_1" xmlns="http://www.w3.org/2000/svg" version="1.1" viewBox="0 0 206 206">
  <!-- Generator: Adobe Illustrator 29.7.1, SVG Export Plug-In . SVG Version: 2.1.1 Build 8)  -->
  <defs>
    <style>
      .st0 {
        fill: currentColor;
      }
    </style>
  </defs>
  <path class="st0" d="M25.8,111.6h154.5c5.1,0,8.6-3.4,8.6-8.6s-3.4-8.6-8.6-8.6H25.8c-5.1,0-8.6,3.4-8.6,8.6s3.4,8.6,8.6,8.6M25.8,145.9h154.5c5.1,0,8.6-3.4,8.6-8.6s-3.4-8.6-8.6-8.6H25.8c-5.1,0-8.6,3.4-8.6,8.6s3.4,8.6,8.6,8.6M180.2,163.1H25.8c-5.1,0-8.6,3.4-8.6,8.6s3.4,8.6,8.6,8.6h154.5c5.1,0,8.6-3.4,8.6-8.6s-3.4-8.6-8.6-8.6"/>
</svg>
