<?xml version="1.0" encoding="UTF-8"?>
<svg id="Layer_1" xmlns="http://www.w3.org/2000/svg" version="1.1" viewBox="0 0 206 206">
  <!-- Generator: Adobe Illustrator 29.7.1, SVG Export Plug-In . SVG Version: 2.1.1 Build 8)  -->
  <defs>
    <style>
      .st0 {
        isolation: isolate;
      }
    </style>
  </defs>
  <g class="st0">
    <g class="st0">
      <path fill="currentColor" d="M155.1,127.2c0,10.4-3.8,18.9-11.5,25.5-7.7,6.6-17.3,10-28.9,10h-55.7V43.3h43.1c11.6,0,21.2,3.3,28.9,9.8,7.7,6.5,11.5,15,11.5,25.5s-2.4,14.7-7.2,20.1c13.3,5.3,19.9,14.8,19.9,28.6ZM88.8,69.5v21h11.2c3.7,0,6.7-1,8.8-2.9s3.2-4.5,3.2-7.6-1.1-5.7-3.2-7.6-5-2.9-8.8-2.9h-11.2ZM124.7,126c0-7-4-10.5-11.9-10.5h-23.9v21h23.9c8,0,11.9-3.5,11.9-10.5Z"/>
    </g>
  </g>
</svg>
