<?xml version="1.0" encoding="UTF-8"?>
<svg id="Layer_1" data-name="Layer 1" xmlns="http://www.w3.org/2000/svg" viewBox="0 0 206 206">
  <defs>
    <style>
      .cls-1 {
        fill: currentColor;
      }
    </style>
  </defs>
  <path class="cls-1" d="M25.75,60.08h154.5c5.15,0,8.58-3.43,8.58-8.58s-3.43-8.58-8.58-8.58H25.75c-5.15,0-8.58,3.43-8.58,8.58s3.43,8.58,8.58,8.58M25.75,94.42h154.5c5.15,0,8.58-3.43,8.58-8.58s-3.43-8.58-8.58-8.58H25.75c-5.15,0-8.58,3.43-8.58,8.58s3.43,8.58,8.58,8.58M180.25,111.58H25.75c-5.15,0-8.58,3.43-8.58,8.58s3.43,8.58,8.58,8.58h154.5c5.15,0,8.58-3.43,8.58-8.58s-3.43-8.58-8.58-8.58M144.76,145.92H61.24c-5.15,0-8.58,3.43-8.58,8.58s3.43,8.58,8.58,8.58h83.51c5.15,0,8.58-3.43,8.58-8.58s-3.43-8.58-8.58-8.58"/>
</svg>
